# xmcd CD database file
#
# Track frame offsets:
#	150
#	11643
#	25928
#	37169
#	49891
#	61260
#	75034
#	88339
#	100809
#	114253
#	124520
#	134419
#	148969
#	162807
#	174766
#	189359
#	201514
#	213246
#	224548
#	236694
#	250545
#	262169
#	272272
#	283015
#	294843
#
# Disc length: 4088 seconds
#
# Revision: 0
# Processed by: cddbd v1.5.2PL0 Copyright (c) Steve Scherf et al.
# Submitted via: CDex 1.70beta2
#
DISCID=660ff619
DTITLE=Caterina Valente - Danke Caterina CD2
DYEAR=1900
DGENRE=Schlager
TTITLE0=Bravo Caterina (mit Silvio Francesco)
TTITLE1=Spiel noch einmal für mich Habanero
TTITLE2=Es geht besser besser besser (mit Silvio Francesco and Peter Alexander)
TTITLE3=Wenn in zwei Herzen die Liebe fällt (mit Silvio Francesco and Peter Alexander)
TTITLE4=Roter Wein und Musik in Toskanien (mit Silvio Francesco)
TTITLE5=Wie wärs ? ((mit Silvio Francesco)
TTITLE6=Melodie d ámore
TTITLE7=Bonjour Katrin
TTITLE8=Sing Baby Sing (mit Peter Alexander)
TTITLE9=Es war in Portugal im Mai
TTITLE10=Zuviel Tequila
TTITLE11=Musik liegt in der Luft
TTITLE12=O Baiao Bongo
TTITLE13=Gaucho reite reite reite
TTITLE14=Papa Piccolino (Ein goldner Stern)
TTITLE15=Der Gondoliere sang nie mehr so schön
TTITLE16=Ein bißchen Pompadur
TTITLE17=Auf Ja-ma-maika
TTITLE18=Daisy crazy Daisy
TTITLE19=Am Golf von Mexico
TTITLE20=Pardon Madame
TTITLE21=Oh Valentino
TTITLE22=Fiesta Cubana
TTITLE23=Diu-Du-Du-Dei (Im Garten da blühen drei Rosen)
TTITLE24=Oha Aha
EXTD=
EXTT0=
EXTT1=
EXTT2=
EXTT3=
EXTT4=
EXTT5=
EXTT6=
EXTT7=
EXTT8=
EXTT9=
EXTT10=
EXTT11=
EXTT12=
EXTT13=
EXTT14=
EXTT15=
EXTT16=
EXTT17=
EXTT18=
EXTT19=
EXTT20=
EXTT21=
EXTT22=
EXTT23=
EXTT24=
PLAYORDER=
